<svg width="20" height="22" viewBox="0 0 20 22" fill="none" xmlns="http://www.w3.org/2000/svg">
<path d="M17.6694 21.1458C17.4649 21.1458 17.2841 21.0951 17.127 20.9937C16.9699 20.8924 16.8491 20.751 16.7647 20.5698C14.7551 20.2142 13 19.2934 11.4995 17.8073C9.99831 16.3212 8.94375 14.4507 8.33586 12.1958C6.51767 12.9368 5.06208 14.0705 3.96911 15.5969C2.87682 17.1226 2.27818 18.8455 2.17321 20.7656H1.14404C1.22363 18.5594 1.88367 16.6017 3.12416 14.8927C4.36533 13.183 6.02744 11.9302 8.11047 11.1344C7.75026 9.32465 7.67754 7.63367 7.89229 6.06145C8.10704 4.48923 8.60207 3.20798 9.37738 2.2177C9.3513 2.16423 9.32832 2.11076 9.30842 2.05729C9.28853 2.00381 9.27858 1.94374 9.27858 1.87708C9.28681 1.59444 9.39041 1.35312 9.58938 1.15312C9.78836 0.953118 10.0278 0.853466 10.3077 0.85416C10.5918 0.85416 10.8343 0.955896 11.0354 1.15937C11.2364 1.36284 11.3369 1.60833 11.3369 1.89583C11.3369 2.18333 11.2364 2.42847 11.0354 2.63124C10.8343 2.83402 10.5918 2.9361 10.3077 2.93749H10.2151C10.1877 2.93749 10.1547 2.92881 10.1163 2.91145C9.60654 3.61284 9.24667 4.41701 9.03672 5.32395C8.82677 6.2309 8.76022 7.30902 8.83706 8.55833C9.06142 7.98402 9.38458 7.49444 9.80654 7.08958C10.2278 6.68402 10.739 6.35138 11.34 6.09166C11.8422 5.8861 12.399 5.73506 13.0103 5.63854C13.6217 5.54201 14.293 5.49965 15.0244 5.51145C15.1218 5.37256 15.2399 5.25937 15.3784 5.17187C15.517 5.08437 15.6742 5.04062 15.8498 5.04062C16.1332 5.04062 16.3754 5.14235 16.5764 5.34583C16.7774 5.5493 16.8783 5.79478 16.879 6.08228C16.8797 6.36978 16.7788 6.61527 16.5764 6.81874C16.374 7.02222 16.1318 7.12395 15.8498 7.12395C15.6488 7.12395 15.469 7.0743 15.3105 6.97499C15.152 6.87569 15.0302 6.73506 14.9452 6.55312C14.2604 6.54478 13.6368 6.58576 13.0741 6.67603C12.5115 6.76631 12.0107 6.90763 11.5716 7.09999C10.8237 7.41944 10.2703 7.88263 9.91151 8.48958C9.55268 9.09652 9.37429 9.84583 9.37635 10.7375C9.90877 10.5972 10.4412 10.4941 10.9736 10.4281C11.506 10.3621 12.1338 10.3292 12.857 10.3292C12.9544 10.1819 13.0755 10.0618 13.2203 9.96874C13.3651 9.87569 13.5283 9.82881 13.7102 9.82812C13.9935 9.82812 14.2361 9.92985 14.4378 10.1333C14.6395 10.3368 14.74 10.5823 14.7393 10.8698C14.7386 11.1573 14.6381 11.4028 14.4378 11.6062C14.2374 11.8097 13.9949 11.9115 13.7102 11.9115C13.5133 11.9115 13.3393 11.8646 13.1884 11.7708C13.0374 11.6778 12.9198 11.5444 12.8354 11.3708C12.1369 11.3708 11.5338 11.4038 11.0261 11.4698C10.5184 11.5358 10.0038 11.6455 9.48235 11.799C9.67926 12.6969 10.163 13.3722 10.9335 13.825C11.704 14.2778 12.7709 14.508 14.1342 14.5156C14.539 14.524 14.9757 14.5087 15.4443 14.4698C15.9129 14.4309 16.3932 14.3726 16.8851 14.2948C16.9689 14.1052 17.0948 13.9545 17.2629 13.8427C17.4309 13.7309 17.6189 13.6746 17.8268 13.674C18.1102 13.674 18.3527 13.776 18.5545 13.9802C18.7562 14.1844 18.8567 14.4295 18.856 14.7156C18.8553 15.0017 18.7548 15.2472 18.5545 15.4521C18.3527 15.6555 18.1102 15.7573 17.8268 15.7573C17.6683 15.7573 17.5229 15.7212 17.3905 15.649C17.2574 15.5774 17.1421 15.476 17.0447 15.3448C16.5273 15.4226 16.0361 15.4816 15.5709 15.5219C15.1057 15.5621 14.6707 15.5826 14.2659 15.5833C13.4652 15.5833 12.7462 15.5038 12.1088 15.3448C11.4714 15.1858 10.9156 14.9406 10.4415 14.6094C11.1469 15.9545 12.0525 17.0517 13.1585 17.901C14.2652 18.749 15.4913 19.2951 16.8368 19.5396C16.9349 19.3868 17.0539 19.2694 17.1939 19.1875C17.3339 19.1055 17.4917 19.0639 17.6673 19.0625C17.9514 19.0625 18.1942 19.1646 18.396 19.3687C18.597 19.5722 18.6975 19.8174 18.6975 20.1042C18.6975 20.3917 18.597 20.6371 18.396 20.8406C18.1949 21.0441 17.9534 21.1458 17.6694 21.1458Z" fill="#00396D"/>
</svg>
