<svg width="1288" height="858" viewBox="0 0 1288 858" fill="none" xmlns="http://www.w3.org/2000/svg">
<path d="M48.5352 652.875V231.385H134.749V392.956H321.227V231.385H407.441V652.875H321.227V470.868H134.749V652.875H48.5352ZM479.535 442.13C477.619 321.43 581.714 221.167 704.33 223.721C784.158 223.721 852.49 262.677 890.169 328.455L825.029 374.436C795.014 327.178 754.781 303.549 704.33 303.549C625.779 303.549 568.303 362.302 568.303 442.768C568.303 523.235 625.779 580.711 704.33 580.711C754.781 580.711 795.014 557.082 825.029 509.824L890.169 555.805C853.767 621.583 784.796 660.538 703.691 660.538C580.437 663.093 476.981 562.829 479.535 442.13ZM963.436 652.875V231.385H1049.65V652.875H963.436Z" fill="#00396D"/>
<path fill-rule="evenodd" clip-rule="evenodd" d="M1127.56 159.659V239.483H1207.39V159.659H1287.21V79.8311H1207.39V0L1127.56 3.48938e-06V79.8311H1047.73V159.659H1127.56Z" fill="#1EAEEC"/>
</svg>
