<svg width="1288" height="866" viewBox="0 0 1288 866" fill="none" xmlns="http://www.w3.org/2000/svg">
<path d="M48.5352 652.873V231.383H134.749V392.954H321.227V231.383H407.441V652.873H321.227V470.866H134.749V652.873H48.5352ZM479.535 442.128C477.619 321.428 581.714 221.165 704.33 223.719C784.158 223.719 852.49 262.675 890.169 328.453L825.029 374.434C795.014 327.176 754.781 303.547 704.33 303.547C625.779 303.547 568.303 362.3 568.303 442.767C568.303 523.233 625.779 580.709 704.33 580.709C754.781 580.709 795.014 557.08 825.029 509.822L890.169 555.803C853.767 621.581 784.796 660.537 703.691 660.537C580.437 663.091 476.981 562.827 479.535 442.128ZM963.436 652.873V231.383H1049.65V652.873H963.436Z" fill="#00396D"/>
<path fill-rule="evenodd" clip-rule="evenodd" d="M1127.56 159.659V239.483H1207.39V159.659H1287.21V79.8311H1207.39V0L1127.56 3.48943e-06V79.8311H1047.73V159.659H1127.56Z" fill="#1EAEEC"/>
<path d="M32.2219 838.355V782.376H41.2125V804.683H69.3717V782.376H78.3623V838.355H69.3717V812.741H41.2125V838.355H32.2219ZM91.5135 838.355V796.71H100.419V838.355H91.5135ZM89.902 781.189C89.902 777.881 92.6162 775.252 96.0088 775.252C99.3167 775.252 102.031 777.881 102.031 781.189C102.031 784.497 99.3167 787.041 96.0088 787.041C92.6162 787.041 89.902 784.497 89.902 781.189ZM109.396 831.231L114.485 825.633C118.132 829.45 121.779 831.57 126.19 831.57C130.007 831.57 132.89 829.959 132.89 826.905C132.89 824.445 131.109 823.428 127.038 821.731L122.797 819.95C115.418 816.897 111.941 813.674 111.941 807.821C111.941 800.357 118.132 795.777 126.614 795.777C132.636 795.777 137.386 797.898 141.033 802.223L136.198 807.737C133.569 805.022 130.091 803.496 126.444 803.496C122.967 803.496 120.761 804.853 120.761 807.482C120.761 809.603 122.203 810.705 126.275 812.401L130.261 814.013C138.149 817.321 141.626 820.714 141.626 826.566C141.626 830.552 140.185 833.691 137.216 835.981C134.247 838.186 130.6 839.288 126.19 839.288C119.065 839.288 113.128 836.065 109.396 831.231ZM176.662 830.807V838.355C173.863 838.949 171.404 839.288 169.283 839.288C159.699 839.288 153.932 834.539 153.932 824.785V804.429H147.146V796.71H153.932V785.769H162.922V796.71H175.305V804.429H162.922V824.021C162.922 829.365 165.721 831.231 171.149 831.231C172.422 831.231 174.203 831.061 176.662 830.807ZM182.233 817.491C181.978 805.531 192.241 795.608 204.2 795.777C216.329 795.523 226.592 805.701 226.337 817.491C226.592 829.28 216.329 839.543 204.2 839.288C192.241 839.543 181.978 829.28 182.233 817.491ZM217.177 817.575C217.177 809.857 211.494 803.92 204.285 803.92C196.906 803.92 191.308 809.857 191.308 817.575C191.308 825.294 196.906 831.061 204.2 831.061C211.579 831.061 217.177 825.124 217.177 817.575ZM201.062 790.179L207.762 772.198H218.619V773.81L207.678 790.179H201.062ZM260.381 796.71V804.598H257.667C250.627 804.598 245.453 808.754 245.453 816.133V838.355H236.547V796.71H244.859V802.139C247.828 798.407 252.238 796.286 256.988 796.286C258.26 796.286 259.363 796.456 260.381 796.71ZM268.354 838.355V796.71H277.259V838.355H268.354ZM266.742 781.189C266.742 777.881 269.456 775.252 272.849 775.252C276.157 775.252 278.871 777.881 278.871 781.189C278.871 784.497 276.157 787.041 272.849 787.041C269.456 787.041 266.742 784.497 266.742 781.189ZM287.508 817.491C287.254 805.531 297.601 795.608 309.561 795.777C317.279 795.777 323.471 799.424 327.118 805.447L320.841 810.366C317.873 806.125 314.141 804.005 309.645 804.005C302.182 804.005 296.584 809.942 296.584 817.491C296.584 825.124 302.182 831.061 309.645 831.061C314.056 831.061 317.788 828.941 320.841 824.785L327.118 829.619C323.386 835.641 317.109 839.288 309.561 839.288C297.262 839.288 287.508 829.619 287.508 817.491ZM333.478 817.491C333.224 805.531 343.487 795.608 355.446 795.777C367.575 795.523 377.838 805.701 377.583 817.491C377.838 829.28 367.575 839.543 355.446 839.288C343.487 839.543 333.224 829.28 333.478 817.491ZM368.423 817.575C368.423 809.857 362.74 803.92 355.531 803.92C348.152 803.92 342.554 809.857 342.554 817.575C342.554 825.294 348.152 831.061 355.446 831.061C362.825 831.061 368.423 825.124 368.423 817.575ZM408.766 810.366C408.427 794.335 422.252 781.189 438.197 781.443C448.46 781.443 457.366 786.448 462.201 794.335L455.415 799.34C451.429 793.148 445.661 789.671 438.282 789.671C426.832 789.671 418.096 798.492 418.096 810.366C418.096 822.24 426.832 831.061 438.282 831.061C445.661 831.061 451.429 827.584 455.415 821.392L462.201 826.396C457.451 834.284 448.63 839.288 438.197 839.288C422.252 839.543 408.427 826.396 408.766 810.366ZM472.361 838.355V774.743H481.267V838.355H472.361ZM494.145 838.355V796.71H503.051V838.355H494.145ZM495.248 790.179L499.404 772.198H510.261V773.81L501.864 790.179H495.248ZM552.316 812.317V838.355H543.41V813.504C543.41 807.737 539.763 803.835 534.335 803.835C528.822 803.835 524.835 807.821 524.835 813.504V838.355H515.929V796.71H524.242V800.782C527.38 797.474 531.536 795.777 536.71 795.777C546.464 795.777 552.316 802.393 552.316 812.317ZM564.716 838.355V796.71H573.622V838.355H564.716ZM563.104 781.189C563.104 777.881 565.818 775.252 569.211 775.252C572.519 775.252 575.233 777.881 575.233 781.189C575.233 784.497 572.519 787.041 569.211 787.041C565.818 787.041 563.104 784.497 563.104 781.189ZM583.87 817.491C583.616 805.531 593.964 795.608 605.923 795.777C613.641 795.777 619.833 799.424 623.48 805.447L617.204 810.366C614.235 806.125 610.503 804.005 606.008 804.005C598.544 804.005 592.946 809.942 592.946 817.491C592.946 825.124 598.544 831.061 606.008 831.061C610.418 831.061 614.15 828.941 617.204 824.785L623.48 829.619C619.748 835.641 613.472 839.288 605.923 839.288C593.624 839.288 583.87 829.619 583.87 817.491ZM629.841 817.491C629.586 805.531 639.849 795.608 651.808 795.777C663.937 795.523 674.2 805.701 673.945 817.491C674.2 829.28 663.937 839.543 651.808 839.288C639.849 839.543 629.586 829.28 629.841 817.491ZM664.785 817.575C664.785 809.857 659.102 803.92 651.893 803.92C644.514 803.92 638.916 809.857 638.916 817.575C638.916 825.294 644.514 831.061 651.808 831.061C659.187 831.061 664.785 825.124 664.785 817.575ZM708.521 838.355V782.376H717.511V838.355H708.521ZM767.009 812.317V838.355H758.103V813.504C758.103 807.737 754.456 803.835 749.028 803.835C743.515 803.835 739.528 807.821 739.528 813.504V838.355H730.622V796.71H738.934V800.782C742.073 797.474 746.229 795.777 751.403 795.777C761.156 795.777 767.009 802.393 767.009 812.317ZM804.175 830.807V838.355C801.376 838.949 798.917 839.288 796.796 839.288C787.212 839.288 781.444 834.539 781.444 824.785V804.429H774.659V796.71H781.444V785.769H790.435V796.71H802.818V804.429H790.435V824.021C790.435 829.365 793.234 831.231 798.662 831.231C799.934 831.231 801.715 831.061 804.175 830.807ZM849.864 820.459H818.821C819.923 827.244 825.267 831.4 832.391 831.4C836.717 831.4 840.788 829.789 844.52 826.481L848.761 832.588C844.011 837.083 838.498 839.288 832.137 839.288C819.414 839.288 809.745 829.874 809.745 817.575C809.491 805.616 819.499 795.523 831.289 795.777C842.315 795.777 850.542 804.005 850.542 814.861C850.542 816.642 850.288 818.508 849.864 820.459ZM818.99 813.504H841.636C841.552 807.143 836.802 803.326 830.949 803.326C825.097 803.326 820.347 807.312 818.99 813.504ZM893.401 796.71H901.629V834.03C901.629 847.176 893.401 854.556 880.764 854.556C872.536 854.556 865.751 851.332 860.747 846.668L865.666 840.476C870.331 844.208 874.572 846.413 880.255 846.413C887.803 846.413 892.723 842.342 892.723 834.539V831.57C889.585 835.387 884.411 837.507 878.643 837.507C867.023 837.507 858.372 828.771 858.372 816.642C858.372 804.514 867.108 795.777 878.643 795.777C885.004 795.777 890.348 798.322 893.401 802.648V796.71ZM892.808 816.558C892.808 808.076 887.125 803.75 880.255 803.75C876.608 803.75 873.639 804.938 871.179 807.312C868.72 809.687 867.532 812.826 867.532 816.642C867.532 820.544 868.72 823.682 871.179 826.142C873.639 828.517 876.608 829.704 880.255 829.704C883.732 829.704 886.616 828.602 889.076 826.311C891.535 824.021 892.808 820.798 892.808 816.558ZM938.336 796.71V804.598H935.622C928.582 804.598 923.409 808.754 923.409 816.133V838.355H914.503V796.71H922.815V802.139C925.783 798.407 930.194 796.286 934.944 796.286C936.216 796.286 937.319 796.456 938.336 796.71ZM978.559 813.165V838.355H970.247V833.691C967.194 837.338 962.614 839.288 956.931 839.288C948.195 839.288 942.427 834.454 942.427 827.244C942.427 820.035 948.365 815.37 957.779 815.37H969.569V812.656C969.569 806.888 966.346 803.75 960.663 803.75C955.998 803.75 952.605 805.786 949.128 809.942L943.954 804.683C948.11 798.661 954.302 795.777 961.511 795.777C971.774 795.777 978.559 801.969 978.559 813.165ZM969.569 822.58V821.816H958.882C954.132 821.816 951.503 823.513 951.503 826.905C951.503 830.383 954.471 832.418 958.797 832.418C964.819 832.418 969.569 828.262 969.569 822.58ZM1022.59 774.743H1031.58V838.355H1023.27V832.418C1020.22 836.744 1014.87 839.288 1008.68 839.288C996.976 839.288 988.325 829.874 988.325 817.575C988.07 805.447 997.146 795.523 1008.68 795.777C1014.45 795.777 1019.45 797.983 1022.59 801.799V774.743ZM1022.76 817.575C1022.76 808.585 1016.65 803.92 1010.21 803.92C1003.08 803.92 997.4 809.518 997.4 817.491C997.4 825.463 1002.83 831.146 1010.21 831.146C1016.74 831.146 1022.76 826.651 1022.76 817.575ZM1041.83 817.491C1041.58 805.531 1051.84 795.608 1063.8 795.777C1075.93 795.523 1086.19 805.701 1085.94 817.491C1086.19 829.28 1075.93 839.543 1063.8 839.288C1051.84 839.543 1041.58 829.28 1041.83 817.491ZM1076.78 817.575C1076.78 809.857 1071.09 803.92 1063.88 803.92C1056.51 803.92 1050.91 809.857 1050.91 817.575C1050.91 825.294 1056.51 831.061 1063.8 831.061C1071.18 831.061 1076.78 825.124 1076.78 817.575Z" fill="#00396D"/>
</svg>
