<svg width="21" height="22" viewBox="0 0 21 22" fill="none" xmlns="http://www.w3.org/2000/svg">
<g id="covid:vaccine-protection-medicine-pill" clip-path="url(#clip0_1176_1592)">
<g id="Group">
<path id="Vector" d="M7.37621 14.7741C6.6273 15.4644 5.64043 15.8384 4.6221 15.8177C3.60377 15.7969 2.63292 15.3832 1.91271 14.663C1.19249 13.9427 0.778735 12.9719 0.758019 11.9536C0.737303 10.9352 1.11123 9.94837 1.80156 9.19946L8.49114 2.50987C9.24005 1.81955 10.2269 1.44562 11.2453 1.46633C12.2636 1.48705 13.2344 1.90081 13.9546 2.62102C14.6749 3.34123 15.0886 4.31209 15.1093 5.33041C15.1301 6.34874 14.7561 7.33562 14.0658 8.08453M5.14549 5.85381L8.79046 9.49877" stroke="#00396D" stroke-width="1.28646" stroke-linecap="round" stroke-linejoin="round"/>
<path id="Vector_2" d="M14.7937 13.5736V17.433M12.864 15.5033H16.7234M19.9395 14.2168C19.9424 15.7147 19.4339 17.1687 18.4982 18.3383C17.5625 19.5079 16.2556 20.3231 14.7937 20.6491C13.3317 20.3231 12.0248 19.5079 11.0891 18.3383C10.1534 17.1687 9.64495 15.7147 9.64784 14.2168V12.2871C9.64784 11.9459 9.78338 11.6187 10.0246 11.3775C10.2659 11.1362 10.5931 11.0007 10.9343 11.0007H18.653C18.9942 11.0007 19.3215 11.1362 19.5627 11.3775C19.804 11.6187 19.9395 11.9459 19.9395 12.2871V14.2168Z" stroke="#00396D" stroke-width="1.28646" stroke-linecap="round" stroke-linejoin="round"/>
</g>
</g>
<defs>
<clipPath id="clip0_1176_1592">
<rect width="20.5833" height="20.5833" fill="white" transform="translate(0 0.708344)"/>
</clipPath>
</defs>
</svg>
