<svg width="20" height="21" viewBox="0 0 20 21" fill="none" xmlns="http://www.w3.org/2000/svg">
<path d="M17.0508 3.41C16.134 2.48392 15.042 1.74967 13.8384 1.25005C12.6349 0.750433 11.3439 0.495459 10.0408 0.499999C4.58078 0.499999 0.130781 4.95 0.130781 10.41C0.130781 12.16 0.590781 13.86 1.45078 15.36L0.0507812 20.5L5.30078 19.12C6.75078 19.91 8.38078 20.33 10.0408 20.33C15.5008 20.33 19.9508 15.88 19.9508 10.42C19.9508 7.77 18.9208 5.28 17.0508 3.41ZM10.0408 18.65C8.56078 18.65 7.11078 18.25 5.84078 17.5L5.54078 17.32L2.42078 18.14L3.25078 15.1L3.05078 14.79C2.22853 13.477 1.79192 11.9592 1.79078 10.41C1.79078 5.87 5.49078 2.17 10.0308 2.17C12.2308 2.17 14.3008 3.03 15.8508 4.59C16.6183 5.35396 17.2265 6.26266 17.6402 7.26342C18.0539 8.26419 18.2648 9.33711 18.2608 10.42C18.2808 14.96 14.5808 18.65 10.0408 18.65ZM14.5608 12.49C14.3108 12.37 13.0908 11.77 12.8708 11.68C12.6408 11.6 12.4808 11.56 12.3108 11.8C12.1408 12.05 11.6708 12.61 11.5308 12.77C11.3908 12.94 11.2408 12.96 10.9908 12.83C10.7408 12.71 9.94078 12.44 9.00078 11.6C8.26078 10.94 7.77078 10.13 7.62078 9.88C7.48078 9.63 7.60078 9.5 7.73078 9.37C7.84078 9.26 7.98078 9.08 8.10078 8.94C8.22078 8.8 8.27078 8.69 8.35078 8.53C8.43078 8.36 8.39078 8.22 8.33078 8.1C8.27078 7.98 7.77078 6.76 7.57078 6.26C7.37078 5.78 7.16078 5.84 7.01078 5.83H6.53078C6.36078 5.83 6.10078 5.89 5.87078 6.14C5.65078 6.39 5.01078 6.99 5.01078 8.21C5.01078 9.43 5.90078 10.61 6.02078 10.77C6.14078 10.94 7.77078 13.44 10.2508 14.51C10.8408 14.77 11.3008 14.92 11.6608 15.03C12.2508 15.22 12.7908 15.19 13.2208 15.13C13.7008 15.06 14.6908 14.53 14.8908 13.95C15.1008 13.37 15.1008 12.88 15.0308 12.77C14.9608 12.66 14.8108 12.61 14.5608 12.49Z" fill="#00396D"/>
</svg>
